<?xml version="1.0" encoding="UTF-8" standalone="no"?><!DOCTYPE svg PUBLIC "-//W3C//DTD SVG 1.1//EN" "http://www.w3.org/Graphics/SVG/1.1/DTD/svg11.dtd"><svg width="100%" height="100%" viewBox="0 0 12 20" version="1.1" xmlns="http://www.w3.org/2000/svg" xmlns:xlink="http://www.w3.org/1999/xlink" xml:space="preserve" xmlns:serif="http://www.serif.com/" style="fill-rule:evenodd;clip-rule:evenodd;stroke-linejoin:round;stroke-miterlimit:2;"><path d="M10.985,19.765c-0.153,0.156 -0.357,0.235 -0.561,0.235c-0.194,0 -0.386,-0.07 -0.537,-0.212l-2.256,-2.123c-0.31,-0.292 -0.32,-0.775 -0.023,-1.079c0.296,-0.304 0.788,-0.315 1.097,-0.023l2.256,2.123c0.31,0.292 0.32,0.774 0.024,1.079Zm-0.197,-18.463l-8.931,8.776l4.93,4.67c0.309,0.292 0.318,0.775 0.02,1.078c-0.152,0.156 -0.355,0.234 -0.559,0.234c-0.194,0 -0.388,-0.071 -0.538,-0.214l-5.501,-5.209c-0.15,-0.142 -0.235,-0.338 -0.237,-0.542c-0.002,-0.205 0.08,-0.402 0.227,-0.547l9.491,-9.325c0.303,-0.297 0.795,-0.297 1.098,0c0.303,0.298 0.303,0.781 0,1.079Z"/></svg>