<svg viewBox="0 0 20 20" xmlns="http://www.w3.org/2000/svg" fill-rule="evenodd" clip-rule="evenodd" stroke-linejoin="round" stroke-miterlimit="2"><path d="M9.988 20c-.14 0-.423-.226-.423-.226-.312-.246-7.621-6.111-7.621-11.999C1.944 3.488 5.558 0 10 0c4.442 0 8.056 3.488 8.056 7.775 0 5.926-7.311 11.755-7.622 12.001 0 0-.305.224-.446.224zM10 1.323c-3.686 0-6.685 2.895-6.685 6.452 0 4.493 5.14 9.276 6.686 10.612 1.547-1.33 6.684-6.09 6.684-10.612 0-3.557-2.999-6.452-6.685-6.452zm0 9.43c-1.733 0-3.142-1.361-3.142-3.033S8.267 4.687 10 4.687c1.733 0 3.142 1.361 3.142 3.033S11.733 10.753 10 10.753zm0-4.743c-.977 0-1.771.767-1.771 1.71S9.023 9.429 10 9.429c.977 0 1.771-.766 1.771-1.709 0-.943-.794-1.71-1.771-1.71z" fill-rule="nonzero"/></svg>