<?xml version="1.0" encoding="UTF-8" standalone="no"?><!DOCTYPE svg PUBLIC "-//W3C//DTD SVG 1.1//EN" "http://www.w3.org/Graphics/SVG/1.1/DTD/svg11.dtd"><svg width="100%" height="100%" viewBox="0 0 18 19" version="1.1" xmlns="http://www.w3.org/2000/svg" xmlns:xlink="http://www.w3.org/1999/xlink" xml:space="preserve" xmlns:serif="http://www.serif.com/" style="fill-rule:evenodd;clip-rule:evenodd;stroke-linejoin:round;stroke-miterlimit:2;"><path d="M17.811,17.445l-4.697,-4.595c1.399,-1.362 2.266,-3.247 2.266,-5.327c0,-4.148 -3.449,-7.523 -7.689,-7.523c-4.241,0 -7.691,3.375 -7.691,7.523c0,4.149 3.45,7.524 7.691,7.524c1.648,0 3.174,-0.515 4.427,-1.383l4.778,4.675c0.127,0.123 0.292,0.185 0.458,0.185c0.165,0 0.33,-0.062 0.457,-0.185c0.252,-0.247 0.252,-0.647 0,-0.894Zm-16.518,-9.922c0,-3.451 2.87,-6.258 6.398,-6.258c3.527,0 6.396,2.807 6.396,6.258c0,3.452 -2.869,6.259 -6.396,6.259c-3.528,0 -6.398,-2.807 -6.398,-6.259Z"/></svg>